<?xml version="1.0" encoding="UTF-8" standalone="no"?>
<svg
   xmlns:dc="http://purl.org/dc/elements/1.1/"
   xmlns:cc="http://creativecommons.org/ns#"
   xmlns:rdf="http://www.w3.org/1999/02/22-rdf-syntax-ns#"
   xmlns:svg="http://www.w3.org/2000/svg"
   xmlns="http://www.w3.org/2000/svg"
   viewBox="0 0 2560 1440"
   height="1440"
   width="2560"
   xml:space="preserve"
   id="svg2"
   version="1.1"><metadata
     id="metadata8"><rdf:RDF><cc:Work
         rdf:about=""><dc:format>image/svg+xml</dc:format><dc:type
           rdf:resource="http://purl.org/dc/dcmitype/StillImage" /></cc:Work></rdf:RDF></metadata><defs
     id="defs6"><clipPath
       id="clipPath18"
       clipPathUnits="userSpaceOnUse"><path
         id="path16"
         d="M 0,1080 H 1920 V 0 H 0 Z" /></clipPath></defs><g
     transform="matrix(1.3333333,0,0,-1.3333333,0,1440)"
     id="g10"><g
       id="g12"><g
         clip-path="url(#clipPath18)"
         id="g14"><g
           transform="translate(355,850)"
           id="g20"><path
             id="path22"
             style="fill:#3fb34c;fill-opacity:1;fill-rule:nonzero;stroke:none"
             d="m 0,0 c 1.571,-1.106 3.162,-2.186 4.71,-3.322 9.437,-6.925 9.939,-18.746 0.847,-27.628 -8.677,-8.476 -17.661,-16.637 -26.529,-24.917 -23.815,-22.237 -47.641,-44.461 -71.452,-66.701 -0.599,-0.56 -1.07,-1.258 -2.003,-2.371 5.106,-5.216 10.164,-10.428 15.271,-15.59 28.53,-28.84 57.097,-57.642 85.564,-86.545 2.522,-2.56 5.064,-5.461 6.467,-8.694 3.487,-8.039 0.483,-16.706 -6.75,-21.404 -7.139,-4.636 -15.102,-3.495 -21.656,3.131 -33.589,33.959 -67.179,67.916 -100.735,101.908 -1.048,1.061 -1.724,2.49 -2.969,4.333 -5.248,-4.804 -9.625,-8.765 -13.951,-12.782 -6.954,-6.457 -14.021,-12.804 -20.705,-19.532 -1.63,-1.641 -2.729,-4.571 -2.755,-6.923 -0.211,-18.497 -0.137,-36.997 -0.075,-55.496 0.024,-7.24 -3.15,-12.406 -9.619,-15.558 -6.64,-3.236 -12.921,-2.409 -18.768,1.924 -4.772,3.535 -6.818,8.52 -6.82,14.295 -0.026,74.664 -0.014,149.328 0.021,223.992 0.003,6.026 2.473,10.916 7.321,14.596 1.286,0.975 2.396,2.183 3.586,3.284 h 11 c 10.111,-3.779 13.543,-11.049 13.414,-21.747 -0.435,-35.778 -0.147,-71.565 -0.123,-107.349 0.001,-1.579 0.133,-3.159 0.247,-5.677 1.841,1.497 3.004,2.332 4.039,3.301 39.262,36.784 78.458,73.637 117.809,110.324 C -26.708,-13.778 -18.22,-7.033 -10,0 Z" /></g><g
           transform="translate(160,438)"
           id="g24"><path
             id="path26"
             style="fill:#2fabe1;fill-opacity:1;fill-rule:nonzero;stroke:none"
             d="m 0,0 c 0.737,0.581 1.582,1.066 2.193,1.759 3.309,3.741 7.358,5.14 12.133,3.607 4.579,-1.47 7.323,-5.781 7.33,-11.32 0.034,-25.493 0.016,-50.985 0.017,-76.479 v -6.25 h 130.276 v 5.542 c 0,25.327 -0.005,50.653 0.004,75.979 0.002,7.895 4.081,12.915 10.562,13.054 6.809,0.146 11.238,-4.914 11.24,-12.968 0.011,-61.65 0.016,-123.298 -0.006,-184.947 -0.003,-9.581 -6.429,-14.789 -14.754,-12.086 -4.585,1.488 -7.028,5.365 -7.033,11.365 -0.019,25.159 -0.011,50.319 -0.012,75.478 v 6.14 H 21.998 c -0.112,-1.99 -0.312,-3.906 -0.314,-5.822 -0.023,-24.659 -0.097,-49.32 0.042,-73.979 0.032,-5.776 -0.995,-10.767 -6.885,-13.064 -5.761,-2.247 -10.359,-0.096 -13.955,4.654 -0.162,0.214 -0.585,0.23 -0.886,0.337 z" /></g><g
           transform="translate(389.5981,318.3145)"
           id="g28"><path
             id="path30"
             style="fill:#2daae0;fill-opacity:1;fill-rule:nonzero;stroke:none"
             d="M 0,0 H 111.13 C 108.8,25.864 85.552,48.801 54.256,48.438 25.629,48.104 0.105,24.998 0,0 m 42.402,-87.314 c -8.014,3.001 -16.54,5.074 -23.952,9.165 -29.617,16.344 -44.217,41.989 -41.826,75.631 2.213,31.154 18.909,53.689 47.517,66.07 42.752,18.502 91.583,-4.227 105.655,-48.632 2.084,-6.575 3.024,-13.641 3.545,-20.552 0.691,-9.151 -3.105,-12.767 -12.266,-12.776 -37.477,-0.035 -74.954,-0.017 -112.431,-0.018 h -9.32 c 2.019,-5.986 3.241,-11.316 5.534,-16.137 17.479,-36.754 66.655,-40.339 89.844,-14.578 4.417,4.907 11.04,5.041 15.105,0.915 4.699,-4.77 4.757,-11.079 0.132,-16.008 -10.94,-11.66 -24.317,-18.894 -39.96,-22.039 -0.893,-0.18 -1.72,-0.687 -2.577,-1.041 z" /></g><g
           transform="translate(1626.2754,318.374)"
           id="g32"><path
             id="path34"
             style="fill:#2daae0;fill-opacity:1;fill-rule:nonzero;stroke:none"
             d="M 0,0 H 111.339 C 109.567,25.121 83.628,52.476 46.356,47.794 23.552,44.929 -0.229,21.512 0,0 m 42.725,-87.374 c -8.748,3.38 -17.932,5.937 -26.166,10.289 -29.043,15.351 -45.174,49.442 -38.966,81.723 6.164,32.055 25.292,53.41 56.365,62.289 41.172,11.764 82.975,-11.454 95.922,-52.037 1.109,-3.477 2.556,-6.845 3.845,-10.264 v -16 c -2.913,-5.82 -7.734,-7.257 -14,-7.221 -37.164,0.213 -74.329,0.112 -111.495,0.116 H 1.005 c -0.197,-1.2 -0.355,-1.689 -0.341,-2.172 0.024,-0.829 0.058,-1.681 0.256,-2.481 5.157,-20.857 18.181,-34.841 38.64,-40.454 20.162,-5.533 38.985,-1.848 54.383,13.485 5.065,5.043 11.453,6.193 15.489,2.371 5.352,-5.07 5.38,-11.74 0.084,-17.208 -8.499,-8.773 -18.64,-14.955 -30.109,-19.006 -3.524,-1.245 -7.12,-2.292 -10.682,-3.43 z" /></g><g
           transform="translate(617.8584,252.7627)"
           id="g36"><path
             id="path38"
             style="fill:#2eaae0;fill-opacity:1;fill-rule:nonzero;stroke:none"
             d="M 0,0 C 31.378,-0.354 56.875,24.398 57.306,55.636 57.751,87.938 33.206,113.726 1.07,113.955 -30.445,114.18 -56.038,90.121 -56.469,57.246 -56.887,25.385 -30.721,0.05 0,0 m -9.858,-21.763 c -9.583,3.525 -19.896,5.784 -28.609,10.814 -24.812,14.326 -38.044,36.337 -39.364,65.191 -1.685,36.83 22.949,68.122 55.902,77.951 43.261,12.906 89.234,-13.111 98.951,-58.521 1.483,-6.93 1.842,-14.193 1.93,-21.311 0.245,-19.996 0.145,-39.998 0.041,-59.997 -0.047,-8.932 -7.205,-14.097 -15.101,-11.152 -5.024,1.874 -6.193,6.18 -6.522,10.808 -0.246,3.461 -0.048,6.955 -0.048,11.508 -2.348,-1.882 -4.011,-3.076 -5.517,-4.443 -11.726,-10.658 -25.096,-17.95 -40.968,-20.196 -0.257,-0.037 -0.464,-0.427 -0.695,-0.652 z" /></g><g
           transform="translate(1444.2861,309.3223)"
           id="g40"><path
             id="path42"
             style="fill:#2daae0;fill-opacity:1;fill-rule:nonzero;stroke:none"
             d="m 0,0 c 0.798,29.023 -22.443,57.271 -56.046,57.42 -34.334,0.151 -57.628,-27.281 -57.601,-57.125 0.027,-30.929 25.581,-56.948 56.341,-56.902 C -25.052,-56.56 -0.029,-31.842 0,0 m -72.286,-78.322 c -5.402,2.257 -10.856,4.397 -16.195,6.791 -29.563,13.254 -47.827,42.558 -46.786,74.94 1.33,41.303 36.137,74.728 77.385,75.463 43.01,0.767 79.935,-34.363 79.641,-79.151 -0.139,-21.159 -0.014,-42.319 -0.044,-63.478 -0.009,-6.014 -2.459,-10.1 -6.792,-11.629 -7.575,-2.671 -14.078,1.55 -14.792,9.855 -0.325,3.791 -0.056,7.633 -0.056,12.682 -3.02,-2.601 -5.202,-4.456 -7.357,-6.341 -10.312,-9.025 -22.293,-14.821 -35.438,-18.389 -0.238,-0.065 -0.38,-0.487 -0.566,-0.743 z" /></g><g
           transform="translate(886,231)"
           id="g44"><path
             id="path46"
             style="fill:#2eaae0;fill-opacity:1;fill-rule:nonzero;stroke:none"
             d="m 0,0 c -6.156,2.254 -12.504,4.094 -18.437,6.833 -29.293,13.523 -45.502,36.521 -46.179,68.783 -0.832,39.628 -0.199,79.287 -0.237,118.933 -0.004,5.036 1.432,9.245 6.231,11.565 3.926,1.899 8.379,1.931 11.093,-1.295 2.345,-2.786 4.059,-6.93 4.235,-10.563 0.53,-10.968 0.175,-21.979 0.167,-32.973 -0.002,-1.812 0,-3.625 0,-6.218 2.133,0 3.893,-0.001 5.652,-0.001 21.155,0.001 42.315,-0.252 63.464,0.132 7.904,0.144 12.704,-4.859 12.907,-10.829 0.216,-6.365 -5.034,-10.932 -12.797,-10.967 -20.822,-0.092 -41.645,-0.035 -62.467,-0.038 h -6.45 c -0.11,-2.202 -0.272,-3.969 -0.274,-5.737 -0.024,-16.658 0.185,-33.319 -0.07,-49.973 -0.487,-31.951 25.422,-55.068 55.199,-55.91 14.465,-0.408 27.612,3.171 38.655,13.135 5.746,5.185 11.847,5.256 15.911,0.685 4.04,-4.544 3.309,-11.505 -1.87,-16.515 C 54.6,9.243 42.177,3.988 28.613,1.03 27.71,0.834 26.87,0.351 26,0 Z" /></g><g
           transform="translate(1216,231)"
           id="g48"><path
             id="path50"
             style="fill:#2eaae0;fill-opacity:1;fill-rule:nonzero;stroke:none"
             d="m 0,0 c -8.121,3.519 -16.623,6.36 -24.297,10.676 -29.101,16.366 -43.597,48.883 -37.981,81.695 5.417,31.651 30.822,59.665 66.86,64.176 23.53,2.945 45.388,-2.436 63.047,-19.639 6.221,-6.059 5.467,-13.852 -1.4,-18.168 -4.091,-2.569 -8.007,-1.844 -11.709,0.581 -2.905,1.904 -5.487,4.291 -8.336,6.285 -33.641,23.537 -79.944,3.926 -87.049,-36.874 -5.051,-28.996 10.788,-55.289 38.302,-64.353 18.279,-6.023 35.466,-2.567 50.804,9.274 1.974,1.525 3.863,3.169 5.905,4.596 5.323,3.722 10.434,3.185 14.756,-1.437 4.084,-4.369 4.097,-9.911 -0.35,-14.799 C 59.793,12.382 48.683,6.604 36.348,2.962 32.906,1.946 29.449,0.986 26,0 Z" /></g><g
           transform="translate(870.8706,684.6587)"
           id="g52"><path
             id="path54"
             style="fill:#3fb34c;fill-opacity:1;fill-rule:nonzero;stroke:none"
             d="m 0,0 c -0.04,-34.014 27.567,-61.961 61.276,-62.033 33.918,-0.072 61.925,27.68 61.935,61.373 0.011,34.52 -26.998,61.993 -61.03,62.08 C 27.658,61.509 0.04,34.229 0,0 m 122.947,-73.687 c -8.152,-5 -15.823,-10.616 -24.239,-14.707 -33.771,-16.418 -76.009,-8.793 -103.899,18.251 -46.771,45.354 -37.807,120.631 18.312,153.762 54.98,32.46 127.421,1.865 142.212,-60.223 1.72,-7.223 2.833,-14.76 2.934,-22.17 0.352,-25.655 0.178,-51.318 0.107,-76.978 -0.029,-10.225 -6.506,-17.818 -15.695,-18.754 -10.541,-1.074 -18.876,6.089 -19.459,16.715 -0.079,1.437 -0.191,2.874 -0.273,4.104" /></g><g
           transform="translate(419.8325,684.6484)"
           id="g56"><path
             id="path58"
             style="fill:#3fb34c;fill-opacity:1;fill-rule:nonzero;stroke:none"
             d="m 0,0 c -0.094,-33.756 27.644,-61.811 61.349,-62.051 33.819,-0.241 61.703,27.468 61.8,61.415 0.099,34.56 -26.778,61.964 -60.867,62.06 C 27.771,61.522 0.096,34.228 0,0 m 122.883,-73.542 c -6.914,-4.443 -13.366,-9.086 -20.261,-12.935 C 65.31,-107.303 15.641,-96.599 -13.025,-61.61 -57.336,-7.524 -31.82,74.003 35.337,93.186 c 46.017,13.145 94.883,-9.791 114.805,-53.953 4.899,-10.86 8.005,-22.212 8.04,-34.213 0.079,-27.33 0.153,-54.66 0.02,-81.989 -0.066,-13.577 -13.803,-21.776 -25.872,-15.626 -6.095,3.106 -8.369,8.687 -9.144,15.089 -0.153,1.266 -0.197,2.545 -0.303,3.964" /></g><g
           transform="translate(770.3345,717.4717)"
           id="g60"><path
             id="path62"
             style="fill:#40b34c;fill-opacity:1;fill-rule:nonzero;stroke:none"
             d="m 0,0 c -0.001,14 -0.152,28.001 0.044,41.998 0.175,12.447 8.975,20.617 20.319,19.285 8.51,-0.999 15.023,-7.888 15.087,-17.118 0.196,-28.332 0.943,-56.7 -0.172,-84.989 -1.666,-42.321 -30.949,-76.86 -71.757,-86.474 -3.112,-0.733 -3.96,-2.006 -3.936,-5.025 0.123,-15.165 0.112,-30.333 0.012,-45.498 -0.052,-7.852 -5.323,-15.396 -11.899,-17.491 -7.94,-2.528 -16.323,-0.043 -20.461,7.185 -2.026,3.54 -2.861,8.165 -2.963,12.33 -0.356,14.491 -0.235,28.997 -0.104,43.495 0.03,3.21 -0.843,4.421 -4.202,5.216 -38.813,9.185 -68.297,43.437 -70.168,81.181 -1.483,29.92 -0.931,59.95 -0.897,89.931 0.01,9.019 6.033,15.537 14.022,16.966 8.164,1.46 16.294,-2.314 19.402,-9.735 1.293,-3.089 1.533,-6.79 1.549,-10.216 0.119,-25.666 -0.043,-51.333 0.089,-76.998 0.136,-26.477 16.335,-48.485 40.907,-55.966 37.673,-11.47 74.478,15.399 75.099,54.924 C 0.165,-24.668 0.001,-12.333 0,0" /></g><g
           transform="translate(1068.8164,651.5059)"
           id="g64"><path
             id="path66"
             style="fill:#3fb34c;fill-opacity:1;fill-rule:nonzero;stroke:none"
             d="m 0,0 c 0,12.829 -0.034,25.658 0.007,38.487 0.139,43.627 29.655,81.069 72.407,89.542 47.231,9.36 88.625,-16.827 102.868,-59.528 3.571,-10.702 5.102,-21.627 5.08,-32.86 -0.049,-26.491 0.042,-52.981 -0.03,-79.472 -0.023,-8.567 -4.218,-14.584 -11.366,-16.962 -7.298,-2.428 -15.723,-0.302 -20.029,6.245 -2.219,3.373 -3.501,7.99 -3.548,12.064 -0.319,27.652 0.463,55.332 -0.434,82.961 -0.652,20.117 -9.787,36.531 -27.554,46.966 C 88.636,104.339 50.785,90.874 39.413,59.518 36.807,52.332 35.461,44.329 35.323,36.67 34.839,9.688 35.178,-17.308 35.104,-44.298 35.08,-53.043 29.143,-60.158 21.222,-61.37 11.792,-62.813 3.208,-57.878 0.754,-49.396 0.164,-47.36 0.077,-45.127 0.068,-42.984 0.012,-28.656 0.039,-14.328 0.039,0 Z" /></g><g
           transform="translate(995.5908,439.2598)"
           id="g68"><path
             id="path70"
             style="fill:#2caae1;fill-opacity:1;fill-rule:nonzero;stroke:none"
             d="M 0,0 C -0.265,0.116 -0.588,0.381 -0.776,0.306 -0.968,0.23 -1.025,-0.182 -1.142,-0.446 -0.879,-0.562 -0.556,-0.827 -0.368,-0.752 -0.176,-0.675 -0.116,-0.266 0,0 m 2.889,-78.676 c 0.4,0.015 0.8,0.03 1.201,0.046 l -0.252,2.804 c -0.317,-0.022 -0.633,-0.042 -0.949,-0.063 z m -3.183,-122.061 c 0.001,0.322 0.002,0.643 0.003,0.966 H -4.92 c -0.001,-0.323 -0.002,-0.644 -0.003,-0.966 z m 10.735,127.382 c 16.81,18.047 37.332,25.285 61.734,21.155 36.209,-6.127 57.724,-38.675 58.221,-71.69 0.351,-23.317 0.082,-46.643 0.068,-69.966 -0.004,-7.568 -4.091,-12.182 -10.744,-12.229 -6.49,-0.046 -10.982,4.738 -11.002,12.189 -0.065,22.656 0.122,45.313 -0.004,67.968 -0.123,22.113 -8.82,39.516 -29.444,49.13 -24.725,11.527 -55.75,-0.58 -66.872,-25.485 -0.744,-1.666 -1.488,-3.332 -2.231,-4.998 -1.248,-2.491 -2.995,-4.863 -3.632,-7.502 -1.056,-4.383 -1.514,-8.926 -1.981,-13.427 -0.162,-1.563 0.341,-3.214 0.643,-4.805 0.329,-1.726 1.116,-3.428 1.124,-5.145 0.084,-18.109 0.086,-36.217 -0.002,-54.325 -0.008,-1.71 -0.324,-3.766 -1.298,-5.053 -2.261,-2.984 -5.013,-5.598 -7.566,-8.36 -1.675,0.253 -3.35,0.508 -5.024,0.762 -5.852,5.911 -6.091,13.238 -6.065,21.023 0.187,55.12 0.165,110.242 0.03,165.362 -0.021,8.476 -0.458,16.82 5.974,23.552 0,0 -0.015,-0.014 -0.015,-0.015 7.966,0.431 14.44,-6.313 14.2,-15.236 -0.562,-20.918 -0.213,-41.863 -0.092,-62.795 0.008,-1.29 1.242,-2.573 1.905,-3.859 0.692,1.25 1.382,2.499 2.073,3.749" /></g><g
           transform="translate(1493.3223,417.6357)"
           id="g72"><path
             id="path74"
             style="fill:#41b34e;fill-opacity:1;fill-rule:nonzero;stroke:none"
             d="M 0,0 C 22.16,-1.021 38.688,18.914 38.969,37.745 39.271,58.008 22.797,77.088 0.46,77.188 -21.046,77.283 -38.369,60.113 -38.431,38.712 -38.494,16.994 -21.675,0.052 0,0 M -0.016,-20.14 C -33.567,-19.67 -58.746,6.456 -58.257,40.296 -57.8,71.991 -31.118,97.379 1.175,97.041 33.666,96.701 59.846,69.095 58.881,36.358 57.97,5.484 31.273,-20.577 -0.016,-20.14" /></g><g
           transform="translate(1532.1123,772.8262)"
           id="g76"><path
             id="path78"
             style="fill:#41b24e;fill-opacity:1;fill-rule:nonzero;stroke:none"
             d="m 0,0 c -0.021,21.175 -17.255,38.507 -38.325,38.544 -21.638,0.038 -39.041,-17.407 -38.936,-39.03 0.104,-21.442 17.365,-38.468 38.948,-38.418 C -16.936,-38.854 0.021,-21.636 0,0 M 19.994,-0.216 C 19.976,-32.75 -6.221,-58.932 -38.683,-58.86 c -32.521,0.072 -58.469,26.211 -58.425,58.856 0.044,32.59 26.06,58.304 58.919,58.234 C -5.832,58.161 20.012,32.2 19.994,-0.216" /></g><g
           transform="translate(1355.3545,653.8804)"
           id="g80"><path
             id="path82"
             style="fill:#41b24e;fill-opacity:1;fill-rule:nonzero;stroke:none"
             d="M 0,0 C 21.528,0.02 38.71,17.125 38.743,38.572 38.776,59.899 21.377,77.289 0.017,77.276 -21.376,77.263 -38.666,60.03 -38.78,38.606 -38.894,17.333 -21.463,-0.02 0,0 m -0.148,-19.988 c -32.344,0.063 -58.411,26.098 -58.41,58.336 0.002,33.028 25.9,58.818 58.968,58.721 C 32.692,96.976 58.659,70.891 58.65,38.564 58.642,6.113 32.366,-20.052 -0.148,-19.988" /></g><g
           transform="translate(1630.6152,653.9009)"
           id="g84"><path
             id="path86"
             style="fill:#41b24e;fill-opacity:1;fill-rule:nonzero;stroke:none"
             d="M 0,0 C 21.423,-0.082 38.906,16.977 39.161,38.209 39.414,59.243 21.854,77.087 0.723,77.27 -20.881,77.458 -38.544,60.12 -38.62,38.651 -38.695,17.406 -21.386,0.082 0,0 M 0.316,-20.014 C -32.091,-20.057 -58.512,6.278 -58.478,38.59 -58.444,71.088 -32.329,97.009 0.415,97.045 32.87,97.082 59.271,70.596 59.034,38.239 58.798,6.077 32.542,-19.971 0.316,-20.014" /></g><g
           transform="translate(1630.9443,499.9805)"
           id="g88"><path
             id="path90"
             style="fill:#41b24d;fill-opacity:1;fill-rule:nonzero;stroke:none"
             d="M 0,0 C 21.033,0.036 38.837,17.831 38.838,38.82 38.84,60.091 20.917,77.877 -0.42,77.779 -21.38,77.683 -38.974,59.824 -38.938,38.68 -38.9,17.65 -21.097,-0.036 0,0 m -58.777,38.958 c -0.016,31.947 26.428,58.55 58.418,58.767 32.054,0.217 58.917,-26.51 58.992,-58.697 0.075,-32.323 -26.467,-58.927 -58.707,-58.842 -32.479,0.085 -58.689,26.325 -58.703,58.772" /></g><g
           transform="translate(1394.1162,538.751)"
           id="g92"><path
             id="path94"
             style="fill:#41b24e;fill-opacity:1;fill-rule:nonzero;stroke:none"
             d="M 0,0 C 0.064,21.198 -17.395,38.833 -38.636,39.026 -59.872,39.219 -77.554,21.328 -77.507,-0.305 -77.461,-21.176 -59.85,-38.699 -38.856,-38.762 -17.607,-38.824 -0.064,-21.325 0,0 m 19.874,0.197 c -0.055,-32.49 -26.3,-58.801 -58.638,-58.784 -32.477,0.018 -58.558,26.236 -58.519,58.829 0.038,32.436 26.37,58.701 58.806,58.657 C -6.564,58.856 19.927,32.206 19.874,0.197" /></g><g
           transform="translate(754.6562,358.2881)"
           id="g96"><path
             id="path98"
             style="fill:#2daadf;fill-opacity:1;fill-rule:nonzero;stroke:none"
             d="m 0,0 c -0.005,-23.497 -0.054,-46.994 0.015,-70.491 0.034,-11.508 2.775,-22.222 13.486,-28.22 5.14,-2.877 11.527,-3.82 17.485,-4.864 6.753,-1.183 10.301,-4.221 10.495,-10.433 0.215,-6.853 -3.622,-10.896 -10.553,-11.119 -26.386,-0.846 -48.829,18.616 -51.664,44.954 -0.568,5.28 -0.84,10.618 -0.848,15.93 -0.064,45.66 -0.044,91.321 -0.016,136.982 0.002,2.148 0.033,4.365 0.542,6.429 1.228,4.97 5.235,7.863 10.264,7.77 4.882,-0.092 9.141,-3.29 10.188,-8 0.5,-2.25 0.583,-4.627 0.587,-6.947 C 0.021,47.994 0.005,23.997 0,0" /></g><g
           transform="translate(1501.8516,278.8633)"
           id="g100"><path
             id="path102"
             style="fill:#2daadf;fill-opacity:1;fill-rule:nonzero;stroke:none"
             d="m 0,0 c -0.001,8.493 -0.106,16.988 0.018,25.48 0.492,33.804 16.482,58.034 46.04,73.596 11.073,5.83 23.059,8.377 35.615,8.121 7.4,-0.151 11.425,-3.556 11.682,-10.039 C 93.613,90.688 89.389,86.31 82.281,85.503 76.36,84.831 70.312,84.591 64.572,83.15 42.994,77.735 24.582,57.241 22.298,35.043 20.958,22.021 21.406,8.807 21.215,-4.324 21.068,-14.314 21.239,-24.309 21.159,-34.3 21.104,-41.153 16.79,-45.698 10.621,-45.647 4.081,-45.593 0.062,-41.448 0.021,-34.474 -0.048,-22.982 0.002,-11.491 0,0" /></g><g
           transform="translate(1548.4775,597.5278)"
           id="g104"><path
             id="path106"
             style="fill:#2eaae0;fill-opacity:1;fill-rule:nonzero;stroke:none"
             d="m 0,0 c -9.486,-0.099 -16.956,7.224 -17.262,16.924 -0.285,9 7.885,17.292 17.044,17.301 C 8.846,34.232 17.253,25.958 17.169,17.11 17.081,7.739 9.414,0.098 0,0" /></g><g
           transform="translate(1536.2744,662.2397)"
           id="g108"><path
             id="path110"
             style="fill:#2eaae0;fill-opacity:1;fill-rule:nonzero;stroke:none"
             d="m 0,0 c -0.064,-9.691 -7.535,-17.128 -17.032,-16.953 -9.343,0.172 -17.139,8.1 -17.03,17.32 0.105,8.843 8.178,16.99 16.905,17.056 C -7.438,17.498 0.065,9.878 0,0" /></g><g
           transform="translate(1536.3359,566.1763)"
           id="g112"><path
             id="path114"
             style="fill:#2eaae0;fill-opacity:1;fill-rule:nonzero;stroke:none"
             d="m 0,0 c 0.029,-9.487 -7.109,-16.715 -16.663,-16.871 -9.42,-0.152 -17.364,7.544 -17.45,16.908 -0.082,8.889 7.842,17.058 16.734,17.252 C -7.612,17.502 -0.031,9.96 0,0" /></g><g
           transform="translate(1454.9902,614.5693)"
           id="g116"><path
             id="path118"
             style="fill:#2eaae0;fill-opacity:1;fill-rule:nonzero;stroke:none"
             d="m 0,0 c 0.106,-9.324 -7.547,-16.959 -17.104,-17.062 -9.318,-0.1 -17.078,7.516 -17.266,16.948 -0.18,8.929 8.088,17.268 17.143,17.292 C -8.067,17.203 -0.105,9.263 0,0" /></g><g
           transform="translate(1448.8223,566.2344)"
           id="g120"><path
             id="path122"
             style="fill:#2eaae0;fill-opacity:1;fill-rule:nonzero;stroke:none"
             d="M 0,0 C 0.016,9.317 7.557,17.144 16.577,17.203 26.319,17.267 34.243,9.424 34.079,-0.121 33.918,-9.459 26.544,-16.821 17.208,-16.964 7.7,-17.111 -0.015,-9.504 0,0" /></g><g
           transform="translate(1448.8428,661.9897)"
           id="g124"><path
             id="path126"
             style="fill:#2eaae0;fill-opacity:1;fill-rule:nonzero;stroke:none"
             d="M 0,0 C -0.11,9.56 7.413,17.535 16.679,17.679 25.908,17.823 33.979,9.909 34.046,0.651 34.113,-8.789 26.538,-16.55 17.092,-16.721 8.091,-16.884 0.104,-9.07 0,0" /></g><g
           transform="translate(987.9609,444.0605)"
           id="g128"><path
             id="path130"
             style="fill:#47acd7;fill-opacity:1;fill-rule:nonzero;stroke:none"
             d="m 0,0 c -6.432,-6.731 -5.995,-15.076 -5.975,-23.552 0.136,-55.12 0.158,-110.242 -0.029,-165.362 -0.026,-7.785 0.213,-15.111 6.065,-21.023 -5.243,1.76 -6.813,5.862 -6.832,10.872 -0.037,9.984 -0.018,19.967 -0.018,29.952 -0.002,52.416 0.003,104.831 -0.009,157.247 C -6.8,-6.585 -5.808,-1.927 0,0" /></g><g
           transform="translate(993.0459,233.3613)"
           id="g132"><path
             id="path134"
             style="fill:#43a6d4;fill-opacity:1;fill-rule:nonzero;stroke:none"
             d="m 0,0 c 2.553,2.763 5.305,5.376 7.565,8.36 0.975,1.287 1.29,3.343 1.299,5.053 0.088,18.108 0.086,36.217 0.002,54.325 -0.008,1.717 -0.795,3.419 -1.124,5.146 -0.303,1.591 -0.805,3.241 -0.643,4.804 0.466,4.501 0.924,9.044 1.981,13.427 0.637,2.64 2.384,5.011 3.632,7.502 C 11.796,89.234 10.288,79.865 10.088,70.469 9.677,51.157 9.992,31.831 9.95,12.512 9.934,4.827 7.025,1.266 0,0" /></g><g
           transform="translate(1006.0322,365.9043)"
           id="g136"><path
             id="path138"
             style="fill:#47acd7;fill-opacity:1;fill-rule:nonzero;stroke:none"
             d="m 0,0 c -0.691,-1.25 -1.382,-2.499 -2.073,-3.748 -0.663,1.285 -1.898,2.568 -1.906,3.858 -0.121,20.933 -0.469,41.877 0.092,62.795 0.241,8.923 -6.233,15.667 -14.199,15.237 5.545,2.872 12.193,0.488 14.045,-5.289 0.743,-2.319 0.983,-4.884 0.993,-7.339 0.082,-20.781 0.059,-41.562 0.066,-62.343 0.001,-1.452 0,-2.904 0,-4.772 C -1.643,-0.882 -0.821,-0.441 0,0" /></g><g
           transform="translate(995.2969,238.5225)"
           id="g140"><path
             id="path142"
             style="fill:#47acd7;fill-opacity:1;fill-rule:nonzero;stroke:none"
             d="m 0,0 h -4.629 c 10e-4,0.322 0.002,0.644 0.003,0.966 H 0.003 C 0.002,0.644 0.001,0.322 0,0" /></g><g
           transform="translate(998.4795,360.584)"
           id="g144"><path
             id="path146"
             style="fill:#47acd7;fill-opacity:1;fill-rule:nonzero;stroke:none"
             d="M 0,0 V 2.787 C 0.316,2.808 0.633,2.828 0.949,2.85 L 1.201,0.046 C 0.801,0.03 0.4,0.015 0,0" /></g><g
           transform="translate(995.5908,439.2588)"
           id="g148"><path
             id="path150"
             style="fill:#47acd7;fill-opacity:1;fill-rule:nonzero;stroke:none"
             d="m 0,0 c -0.116,-0.265 -0.176,-0.674 -0.368,-0.751 -0.188,-0.075 -0.511,0.19 -0.774,0.306 0.117,0.264 0.174,0.676 0.366,0.752 C -0.588,0.382 -0.265,0.117 0,0" /></g></g></g></g></svg>